<svg width="40" height="40" viewBox="0 0 40 40" fill="none" xmlns="http://www.w3.org/2000/svg">
<path d="M20 10.7412C11.7125 10.7412 5 17.4537 5 25.7412C4.9983 28.8901 5.98822 31.9596 7.82933 34.5142C9.67043 37.0688 12.2692 38.9788 15.257 39.9732C16.007 40.1037 16.2875 39.6537 16.2875 39.2592C16.2875 38.9037 16.268 37.7232 16.268 36.4662C12.5 37.1607 11.525 35.5482 11.225 34.7037C11.0555 34.2717 10.325 32.9412 9.6875 32.5842C9.1625 32.3037 8.4125 31.6092 9.668 31.5912C10.85 31.5717 11.693 32.6787 11.975 33.1287C13.325 35.3967 15.482 34.7592 16.343 34.3662C16.475 33.3912 16.868 32.7357 17.3 32.3607C13.9625 31.9857 10.475 30.6912 10.475 24.9537C10.475 23.3217 11.0555 21.9732 12.0125 20.9217C11.8625 20.5467 11.3375 19.0092 12.1625 16.9467C12.1625 16.9467 13.418 16.5537 16.2875 18.4857C17.5086 18.1468 18.7703 17.9762 20.0375 17.9787C21.3125 17.9787 22.5875 18.1467 23.7875 18.4842C26.6555 16.5342 27.9125 16.9482 27.9125 16.9482C28.7375 19.0107 28.2125 20.5482 28.0625 20.9232C29.018 21.9732 29.6 23.3037 29.6 24.9537C29.6 30.7107 26.0945 31.9857 22.757 32.3607C23.3 32.8287 23.7695 33.7287 23.7695 35.1357C23.7695 37.1412 23.75 38.7537 23.75 39.2607C23.75 39.6537 24.032 40.1217 24.782 39.9717C27.7595 38.9664 30.3469 37.0527 32.1799 34.4999C34.0128 31.9472 34.9991 28.8839 35 25.7412C35 17.4537 28.2875 10.7412 20 10.7412Z" fill="#FFFCF3"/>
</svg>
