<svg width="40" height="40" viewBox="0 0 40 40" fill="none" xmlns="http://www.w3.org/2000/svg">
<path d="M30.5583 35.565H26.1167V28.6033C26.1167 26.9433 26.0833 24.8067 23.8 24.8067C21.485 24.8067 21.1317 26.6133 21.1317 28.4817V35.565H16.6883V21.25H20.955V23.2H21.0133C21.61 22.0767 23.06 20.8883 25.2267 20.8883C29.7267 20.8883 30.56 23.8517 30.56 27.7067V35.565H30.5583ZM11.6717 19.2917C11.3326 19.2921 10.9968 19.2256 10.6834 19.096C10.3701 18.9664 10.0854 18.7762 9.84576 18.5364C9.60608 18.2966 9.41609 18.0118 9.28668 17.6984C9.15728 17.3849 9.09101 17.0491 9.09167 16.71C9.092 16.1997 9.24363 15.701 9.5274 15.2769C9.81117 14.8528 10.2143 14.5224 10.6859 14.3274C11.1574 14.1325 11.6762 14.0817 12.1766 14.1816C12.677 14.2814 13.1366 14.5275 13.4972 14.8885C13.8578 15.2496 14.1032 15.7094 14.2024 16.21C14.3016 16.7105 14.2502 17.2292 14.0546 17.7005C13.8591 18.1718 13.5281 18.5746 13.1037 18.8578C12.6792 19.141 12.1819 19.292 11.6717 19.2917ZM13.8983 35.565H9.44333V21.25H13.9V35.565H13.8983ZM32.7833 10C43.6334 10 5 10 5 10C5 10 5 10.9667 5 12.1617V37.8383C5 39.0333 5 40 5 40H35C35 40 35 39.0333 35 37.8383V12.1617C35 10.9667 35 10 35 10H32.7833Z" fill="#FFFCF3"/>
</svg>
